<svg width="32" height="30" viewBox="0 0 32 30" fill="none" xmlns="http://www.w3.org/2000/svg">
<path d="M9.59571 27.0356C11.7629 26.5401 13.1331 25.1492 14.5212 23.6714C14.3332 23.6192 14.1899 23.5758 14.0466 23.541C12.1391 23.0716 10.3838 22.2718 8.7718 21.1852C7.77775 20.5158 6.9628 19.6726 6.34487 18.6468C6.26427 18.5164 6.20158 18.3773 6.13889 18.2382C6.12098 18.2034 6.12098 18.16 6.10307 18.0382C6.71204 18.2208 7.28519 18.3947 7.84939 18.5685C7.8673 18.5511 7.87625 18.5425 7.89416 18.5251C7.83148 18.4729 7.77774 18.4207 7.71505 18.3773C6.98071 17.9165 6.26427 17.4384 5.52096 17.0038C4.67019 16.4996 3.77464 16.0649 2.95074 15.5433C1.84921 14.8392 1.07008 13.8482 0.505888 12.7007C0.479022 12.6485 0.470066 12.5963 0.461111 12.5442C0.452155 12.5181 0.461111 12.4833 0.461111 12.4051C1.37457 12.7876 2.22534 13.3266 3.28209 13.2309C1.20442 12.0748 -0.085173 10.4578 0.00438188 8.02376C0.890975 8.97131 1.75966 9.91017 2.62834 10.849C2.64625 10.8316 2.67312 10.8056 2.69103 10.7882C2.33281 10.1101 1.9119 9.44944 1.64324 8.7366C1.37457 8.02376 1.19546 7.25007 1.10591 6.49377C1.01635 5.73747 1.08799 4.96378 1.08799 4.19878C1.13277 4.19009 1.17755 4.19009 1.21337 4.1814C1.63428 5.10287 2.05519 6.02434 2.4761 6.95451C2.52087 6.95451 2.56565 6.94581 2.61043 6.94581C2.59252 5.26804 2.78058 3.62504 3.57762 2.12112C3.61344 2.12112 3.64926 2.12112 3.68509 2.12982C3.68509 2.50362 3.703 2.86873 3.68509 3.24254C3.58658 5.07679 4.31197 6.64155 5.39559 8.06723C6.12098 9.01478 7.01653 9.80585 7.98372 10.5187C9.2554 11.4575 10.6793 12.1443 12.1032 12.8224C13.4287 13.4483 14.5929 14.3002 15.6854 15.2564C16.3481 15.8389 17.0377 16.3866 17.7183 16.9516C17.9064 17.1081 18.0945 17.2819 18.3094 17.4732C18.6587 16.6908 18.9811 15.9606 19.3035 15.2217C20.0826 13.4657 21.2558 11.9878 22.7065 10.7099C23.8618 9.69284 25.035 8.71052 26.1902 7.70212C27.7574 6.3286 28.7336 4.62475 29.047 2.59055C29.1634 1.86902 29.1097 1.11272 29.1366 0.382497C29.1366 0.260793 29.1366 0.130397 29.1814 0C29.7456 1.25181 29.9068 2.57317 30.0411 3.94668C30.5963 2.85135 31.1426 1.75601 31.6979 0.651985C31.7426 0.660678 31.7874 0.66937 31.8232 0.678063C31.7605 1.79948 31.7516 2.92089 31.6173 4.03361C31.4829 5.13764 31.2232 6.22428 31.0172 7.27615C31.2949 6.85888 31.6173 6.38076 31.9934 5.83309C32.0202 6.90235 31.9844 7.86728 31.5187 8.78006C31.062 9.68415 30.3277 10.3622 29.5306 11.0316C29.9694 11.1185 30.3187 10.9707 30.659 10.8056C30.9904 10.6491 31.2949 10.4578 31.6799 10.2405C31.6441 10.4057 31.6262 10.5187 31.5904 10.623C31.1068 11.8922 30.3545 12.9875 29.2261 13.796C28.5366 14.3002 27.8022 14.7436 27.1216 15.2478C26.6917 15.5694 26.3872 15.7693 26.3693 16.2127C26.6559 16.1171 26.9335 16.0301 27.2649 15.9258C26.7096 17.7688 25.2409 18.8989 23.9603 20.2202C24.0857 20.2724 24.1842 20.3072 24.2827 20.3506C24.9185 20.6027 25.4559 20.9852 25.8231 21.559C26.1007 21.9849 26.1634 22.437 26.0469 22.9325C26.0111 23.0803 26.1007 23.2802 26.1992 23.4106C26.5037 23.8626 26.5484 24.3234 26.2798 24.7928C26.0201 25.2535 25.5902 25.4796 25.026 25.5143C25.4738 24.732 25.4559 24.5581 24.8469 24.1408C24.7842 24.4625 24.7215 24.7667 24.6588 25.0884C24.2558 24.7667 23.9066 24.3842 23.4678 24.1582C23.02 23.9322 22.4916 23.8713 21.9543 23.7236C21.9811 23.8366 21.9811 23.9061 22.008 23.967C22.4021 24.9319 22.7692 25.9142 23.217 26.8618C23.3782 27.2095 23.7006 27.5051 23.9961 27.7659C24.2738 28.0093 24.4708 27.9223 24.5782 27.5659C24.6499 27.3138 24.6767 27.053 24.7215 26.8009C24.7663 26.5749 24.8917 26.4793 25.0529 26.5488C25.0887 26.7575 25.1335 26.9226 25.1424 27.0878C25.1514 27.2617 25.1514 27.4442 25.1156 27.6094C25.0797 27.7572 24.9812 27.8963 24.9096 28.0353C24.9275 28.0614 24.9544 28.0788 24.9723 28.1049C25.2141 27.9484 25.4648 27.7919 25.6977 27.6268C25.8141 27.5398 25.9037 27.4268 26.0111 27.3312C26.432 26.9574 26.638 26.9835 26.9335 27.479C26.7723 27.4616 26.629 27.4355 26.4768 27.4181C26.4499 28.0614 25.7514 28.0527 25.4648 28.4874C25.8051 28.47 26.1096 28.4439 26.4141 28.4439C26.8798 28.4439 27.0679 28.6526 26.9783 29.1133C26.844 28.8003 26.6201 28.8438 26.4052 28.9307C25.9484 29.1133 25.4827 29.0524 25.0171 28.9916C24.5066 28.922 24.0499 28.9916 23.611 29.2872C23.3245 29.4871 23.0289 29.6784 22.617 29.5914C22.5274 29.574 22.3662 29.8609 22.2498 30C22.0617 29.7566 22.0707 29.5219 22.3841 29.3306C22.5812 29.2089 22.814 29.1481 23.0289 29.0611C23.1633 29.009 23.3066 28.9655 23.423 28.8786C23.6827 28.6873 23.6827 28.5656 23.4319 28.3744C22.814 27.8876 22.1961 27.4094 21.5782 26.9226C21.5244 26.8792 21.4617 26.8444 21.408 26.8357C20.593 26.7662 20.1453 26.2446 19.805 25.61C19.7333 25.4709 19.6796 25.2796 19.4826 25.4013C19.3751 25.4709 19.2587 25.6795 19.2945 25.7838C19.4826 26.4706 19.8945 27.0096 20.5304 27.3573C20.808 27.3138 20.8617 26.6531 21.2558 27.053C21.2199 27.2008 21.1931 27.2877 21.1752 27.3747C21.2826 27.3921 21.399 27.4355 21.5065 27.4268C21.6856 27.4268 21.8647 27.3921 22.0438 27.3747C22.0528 27.4094 22.0617 27.4529 22.0707 27.4877C21.9453 27.5485 21.8199 27.6094 21.6498 27.6963C22.5095 27.7398 22.5095 27.7398 22.5453 28.1831C22.2677 27.9223 21.9991 28.131 21.7304 28.1657C21.1214 28.2353 20.7005 28.5135 20.4766 29.0959C20.405 29.2785 20.208 29.4089 20.0289 29.6088C20.0378 29.6349 20.0647 29.7218 20.0826 29.8174C19.6975 29.687 19.6079 29.5045 19.796 29.1742C19.9393 28.9221 20.1274 28.6873 20.2975 28.4439C20.4498 28.2266 20.4498 28.044 20.1632 27.9223C19.6975 27.7224 19.3035 27.4008 18.7572 27.3486C18.5512 27.3312 18.3721 27.0617 18.1661 26.8879C18.0676 27.0443 17.9333 27.2269 17.8258 27.4355C17.5124 28.0527 16.984 28.4265 16.3213 28.6004C14.2347 29.1568 12.2644 28.8438 10.4286 27.7398C10.1241 27.5659 9.90019 27.2964 9.59571 27.0356Z" fill="#F58021"/>
</svg>
