<svg width="34" height="30" viewBox="0 0 34 30" fill="none" xmlns="http://www.w3.org/2000/svg">
<path fill-rule="evenodd" clip-rule="evenodd" d="M23.7656 13.2252C24.0776 13.8923 24.3896 14.5594 24.713 15.256C24.6313 15.3229 24.5485 15.392 24.4645 15.4622L24.4642 15.4625L24.4641 15.4626C24.2741 15.6213 24.0779 15.7853 23.8734 15.9408C23.6463 16.1126 23.421 16.2868 23.1959 16.4609L23.1955 16.4612L23.1955 16.4612C22.6392 16.8914 22.0837 17.321 21.5023 17.7118C19.4091 19.1228 17.1004 19.6954 14.6158 19.4711C14.0088 19.4179 13.3678 19.1995 13.1125 19.0165C13.2599 17.9545 13.4017 16.922 13.5434 15.8895L13.5436 15.8877C13.5266 15.8818 13.5082 15.8773 13.4898 15.8729C13.4713 15.8685 13.4529 15.864 13.4359 15.8581C13.3806 15.9748 13.3259 16.0914 13.2712 16.2079L13.271 16.2083C13.1347 16.4985 12.9989 16.7879 12.8573 17.0743C12.4894 17.8307 12.2427 18.634 11.9955 19.4391C11.9263 19.6644 11.8571 19.8899 11.7851 20.1145C11.3313 21.5137 10.5202 22.5881 9.14172 23.1135C9.07365 23.143 9.01693 23.2611 8.98856 23.3496C8.93299 23.5332 8.8836 23.7189 8.83424 23.9044L8.83421 23.9045C8.7677 24.1546 8.70125 24.4044 8.61985 24.6484C8.30785 25.593 7.72358 26.325 6.93509 26.8858C6.58339 27.1338 6.23169 27.3876 5.89701 27.6592C5.60771 27.8894 5.61905 27.9898 5.90268 28.22C5.95816 28.2651 6.01396 28.3094 6.06962 28.3537L6.06964 28.3537L6.06966 28.3538C6.24733 28.4951 6.42358 28.6353 6.58339 28.7926C6.84433 29.0524 6.96345 29.383 6.86702 29.7608C6.84433 29.8494 6.71386 29.9674 6.63444 29.9674C4.77384 29.9792 2.90756 29.9792 1.04695 29.9733C0.978881 29.9733 0.882447 29.9497 0.842739 29.9025C0.785772 29.8303 0.727454 29.7584 0.668964 29.6863L0.668856 29.6862L0.668842 29.6862C0.459456 29.428 0.247886 29.1672 0.0882863 28.8812C-0.0138202 28.6982 -0.0251655 28.3912 0.0429054 28.1846C0.700925 26.1007 1.54614 24.123 3.14013 22.6058C3.2082 22.5409 3.24791 22.3992 3.25359 22.2988C3.29329 20.7993 3.46347 19.3117 3.83219 17.8653C4.14985 16.6138 4.49021 15.3622 5.0915 14.2111C6.19765 12.1094 7.62714 10.3561 9.82243 9.41156C11.7114 8.60278 13.555 8.72675 15.3532 9.68312C15.6001 9.81559 15.8233 9.99719 16.0408 10.1741C16.1432 10.2574 16.2442 10.3396 16.3459 10.4151C16.1417 9.95467 15.7843 9.57685 15.3986 9.22855C15.7618 9.08475 16.1264 8.94557 16.4903 8.80664L16.4904 8.80661C18.0987 8.19268 19.6943 7.58356 21.1052 6.60151C21.1673 6.82646 21.2283 7.05368 21.2897 7.28217L21.2897 7.28222C21.3684 7.57539 21.4478 7.87066 21.5306 8.16592C21.5533 8.23676 21.5987 8.3017 21.6554 8.36074C21.542 7.62871 21.542 6.89668 21.8086 6.22368C22.0582 5.58611 22.3588 4.94263 22.7446 4.38771C23.6919 3.04172 24.8321 1.87283 26.1027 0.851531L26.1027 0.851521L26.1028 0.851511C26.1538 0.810194 26.2048 0.768875 26.2616 0.727558C26.3527 0.667042 26.4429 0.602563 26.5334 0.537948C26.9724 0.224361 27.4159 -0.0924312 27.9804 0.0250457C28.9107 0.213957 29.6878 0.721654 30.221 1.55404C30.3742 1.79018 30.55 1.95548 30.794 2.04403C31.4293 2.27427 31.9058 2.6698 32.2121 3.31328C32.3231 3.54838 32.4833 3.75659 32.6437 3.96514C32.7209 4.06555 32.7982 4.16603 32.8701 4.26964C33.0176 4.48216 33.046 4.65927 32.8815 4.90721C32.7453 5.11383 32.6773 5.3913 32.6376 5.64514C32.5865 5.94622 32.6999 6.14104 33.0063 6.30633C33.8061 6.73138 34.2713 7.68184 33.8288 8.6441C33.755 8.8035 33.687 8.96289 33.6246 9.12819C33.3296 9.91925 32.768 10.1967 31.9965 9.91925L31.9575 9.90597L31.9575 9.90596C31.9182 9.89268 31.8788 9.8794 31.8491 9.86612C31.7072 10.0727 31.5654 10.2735 31.4123 10.486C31.3905 10.4583 31.3718 10.4381 31.3576 10.4227C31.3384 10.402 31.3272 10.3899 31.3272 10.3797C31.3726 9.87202 31.0776 9.57095 30.7486 9.26397C29.2113 7.82352 27.328 8.08328 26.0403 8.91566C26.1851 8.88512 26.3285 8.85178 26.4715 8.81852L26.4716 8.81852C26.7432 8.75536 27.0133 8.69255 27.2883 8.65001C28.922 8.41387 30.3402 9.17542 31.0946 10.6985C31.6165 11.7493 31.9852 12.8474 31.8944 14.0635L31.8934 14.0777V14.0777C31.8767 14.3159 31.8585 14.5754 31.764 14.7837C31.435 15.5157 31.5371 16.2537 31.7186 16.9798L31.752 17.1151C31.9224 17.805 32.0972 18.5133 32.422 19.1228C33.6756 21.4664 33.7777 23.999 33.687 26.567C33.6473 27.671 33.3069 28.6509 32.4333 29.3653C31.9455 29.7667 31.4236 30.0442 30.7713 29.991C30.4706 29.9674 30.1643 29.9615 29.8637 29.991C29.2964 30.056 28.905 29.7608 28.5703 29.3476C28.2073 28.9048 28.0428 28.3912 28.1449 27.8127C28.1732 27.6592 28.281 27.4703 28.4058 27.3994C28.5626 27.3127 28.677 27.433 28.793 27.5549C28.8113 27.5741 28.8297 27.5934 28.8483 27.6119C29.0231 27.788 29.254 27.9174 29.4741 28.0407L29.4741 28.0408L29.4779 28.0429C29.6708 28.1492 29.7729 28.0606 29.7956 27.8363C29.8183 27.5706 29.7389 27.3463 29.546 27.1751C28.4625 26.2128 27.7818 24.9554 27.1692 23.6507C26.6984 22.6412 26.3977 21.5845 26.2899 20.4628C26.2105 19.6186 26.3523 18.7981 26.5055 17.9775C26.5792 17.6056 26.653 17.2277 26.6757 16.844C26.7267 16.0825 26.4715 15.439 25.8418 15.0317C25.0647 14.5299 24.3726 13.9277 23.8167 13.1721C23.8224 13.1898 23.794 13.2075 23.7656 13.2252ZM25.4274 15.9062C25.7564 16.1837 25.8756 16.5025 25.8075 16.898C25.7655 17.1537 25.7194 17.4087 25.6732 17.6638L25.6731 17.6641L25.6731 17.6642C25.5882 18.1332 25.5032 18.6023 25.4445 19.0764C25.2516 20.6763 25.609 22.1875 26.2046 23.6457C26.3124 23.9113 26.3237 24.1239 26.2103 24.3895C25.694 25.6056 25.1325 26.7922 24.4064 27.8962C23.4647 29.3248 22.1487 29.986 20.5036 29.986C20.4064 29.986 20.3097 29.9876 20.2132 29.9892H20.2132C19.9888 29.9929 19.7654 29.9966 19.5393 29.9801C19.4258 29.9742 19.284 29.8975 19.2216 29.803C18.6941 29.0592 18.7848 27.5184 19.3918 26.8395C19.4599 26.7627 19.613 26.6919 19.6981 26.7214C19.7628 26.7454 19.8087 26.8478 19.8511 26.9424L19.8511 26.9424C19.8607 26.964 19.8702 26.9851 19.8797 27.0048C19.9031 27.0535 19.9201 27.1072 19.937 27.1605C19.9652 27.2495 19.9931 27.3376 20.0498 27.4003C20.1519 27.5243 20.3278 27.7014 20.4412 27.6778C20.5604 27.6541 20.6795 27.4357 20.7305 27.2822C20.7816 27.1346 20.7646 26.9516 20.7362 26.7981C20.6951 26.582 20.6435 26.3674 20.5921 26.1533L20.5921 26.1533C20.5016 25.7766 20.4114 25.4013 20.3788 25.0212C20.2257 23.3151 20.3732 21.6385 21.0822 20.0623C21.2467 19.7022 21.4339 19.3362 21.6779 19.0292C21.9331 18.6986 22.2508 18.4093 22.5741 18.1496C22.9059 17.8783 23.2478 17.6217 23.5902 17.3647L23.5902 17.3647L23.5904 17.3646C23.8216 17.1911 24.0529 17.0174 24.2816 16.839C24.5366 16.637 24.7891 16.4296 25.0459 16.2187C25.1718 16.1153 25.2987 16.0111 25.4274 15.9062ZM13.2357 20.1023C13.09 20.0575 12.9437 20.0124 12.7946 19.9668C12.744 20.0807 12.6951 20.1963 12.6459 20.3123C12.5627 20.5088 12.4789 20.7065 12.3862 20.8995C11.8246 22.0802 11.0871 23.1074 9.94694 23.7686C9.85618 23.8218 9.79379 23.9575 9.75975 24.0697C9.48747 25.0202 9.14711 25.9293 8.51746 26.6967C8.47207 26.7558 8.43237 26.862 8.44938 26.927C8.64792 27.5823 8.85214 28.2375 9.07337 28.881C9.11308 28.9932 9.2322 29.0995 9.33998 29.1644C9.74273 29.4005 10.1455 29.6308 10.5596 29.8492C10.6957 29.92 10.8546 29.985 11.002 29.985C12.2016 29.9938 13.3979 29.9927 14.5958 29.9916C14.9954 29.9912 15.3952 29.9909 15.7954 29.9909H16.1471C16.1089 29.9095 16.0778 29.8301 16.0484 29.755C15.9903 29.6066 15.9387 29.4749 15.8521 29.3769C15.6365 29.1349 15.3926 28.9046 15.1317 28.7216C14.8866 28.5501 14.6206 28.4077 14.3555 28.2658C14.2831 28.227 14.2108 28.1883 14.139 28.149C13.8554 27.9896 13.7306 27.7535 13.7532 27.4229C13.757 27.3442 13.7659 27.2655 13.7747 27.1867C13.7791 27.1474 13.7835 27.108 13.7873 27.0687C13.8046 26.8899 13.8262 26.7106 13.8478 26.5312C13.8969 26.1237 13.9461 25.7151 13.9461 25.3094C13.9461 24.4652 13.5831 23.7391 13.0669 23.1015C13.9631 22.4049 14.139 21.4191 14.2241 20.4037C13.8831 20.3017 13.5612 20.2026 13.2357 20.1023Z" fill="#F58021"/>
</svg>
