<svg width="18" height="30" viewBox="0 0 18 30" fill="none" xmlns="http://www.w3.org/2000/svg">
<path fill-rule="evenodd" clip-rule="evenodd" d="M8.69628 0.00430621C9.16682 -0.0220341 9.61558 0.0745472 10.0774 0.236979C10.0622 0.28053 10.048 0.323333 10.0341 0.365389C10.0004 0.467472 9.96812 0.56515 9.92492 0.658424C9.79204 0.945973 9.65697 1.23352 9.52191 1.52107L9.52173 1.52145C9.38673 1.80887 9.25172 2.09629 9.1189 2.38371L9.11852 2.38453L9.11852 2.38454C9.04697 2.53963 9.01214 2.61516 8.95356 2.647C8.89796 2.67722 8.82097 2.66809 8.67091 2.6503L8.644 2.64712C8.49151 2.62956 8.40001 2.56371 8.37822 2.41444C8.36898 2.3516 8.35729 2.28844 8.34558 2.22522L8.34558 2.2252L8.34557 2.22518L8.34557 2.22516L8.34557 2.22514L8.34557 2.22512L8.34556 2.2251L8.34556 2.22508L8.34556 2.22506L8.34555 2.22504L8.34555 2.22502C8.31312 2.04984 8.2806 1.87418 8.2998 1.70326C8.3479 1.28094 8.42579 0.861346 8.50358 0.442334L8.50358 0.442308L8.50359 0.442263L8.5036 0.442229L8.5036 0.4422L8.50361 0.442173L8.50362 0.442147L8.50362 0.44212L8.50363 0.442091L8.50363 0.442063L8.50364 0.442039L8.50364 0.442015C8.52449 0.329742 8.54532 0.21751 8.56557 0.105278C8.57428 0.0657671 8.64835 0.00869626 8.69628 0.00430621ZM5.76015 1.42717L5.76027 1.42735L5.76029 1.42738C6.04917 1.86028 6.33183 2.28386 6.62681 2.69998C6.73573 2.85802 6.88387 2.9985 7.1235 2.90192C7.48948 2.76144 7.58097 2.66486 7.47205 2.27853C7.34172 1.80895 7.42261 1.35741 7.50379 0.904287C7.51216 0.857537 7.52054 0.810771 7.52869 0.763965C7.55919 0.597144 7.55483 0.412761 7.51562 0.245939C7.49819 0.166918 7.34134 0.048387 7.28035 0.0615572C6.61374 0.228379 6.02992 0.557633 5.47223 0.996638C5.56932 1.1412 5.66507 1.28469 5.76015 1.42717ZM4.04847 4.77483C4.35373 4.9994 4.65988 5.22463 4.97145 5.45259C4.86688 5.95744 4.59676 6.2428 4.06957 6.29987C3.34197 6.3745 2.72765 6.07598 2.17432 5.62819C2.14382 5.60185 2.13075 5.50527 2.15254 5.46137C2.18491 5.38879 2.21713 5.31606 2.24937 5.2433L2.2494 5.24324C2.39071 4.92429 2.53235 4.60458 2.68844 4.29361C2.73034 4.20616 2.79897 4.1332 2.86467 4.06336C2.8946 4.03154 2.92393 4.00036 2.94985 3.96875C3.31994 4.23887 3.68357 4.50638 4.04847 4.77483ZM4.24386 7.45786C3.4204 7.25152 2.62309 7.04958 1.76478 6.83008C1.74641 6.93187 1.72589 7.03691 1.70492 7.14425L1.70485 7.1446L1.70484 7.14466L1.70483 7.14473L1.70481 7.14483C1.66613 7.34285 1.62592 7.54869 1.59486 7.75638C1.56503 7.95307 1.54534 8.15147 1.52526 8.35367L1.52525 8.35375L1.52525 8.3538L1.52524 8.35383C1.51306 8.47652 1.50074 8.60061 1.48594 8.72658C2.17433 9.0734 2.88014 9.16998 3.57725 8.76609C4.07393 8.48513 4.27 8.01978 4.24386 7.45786ZM1.51641 9.78507C1.3857 10.4787 1.49027 11.1328 1.73425 11.7694C1.75604 11.8221 1.81268 11.8791 1.86496 11.8967C2.89319 12.2435 4.05213 11.5499 4.21333 10.6148C4.23512 10.4875 4.24383 10.3514 4.23512 10.2241C4.18283 9.66654 4.07827 9.58752 3.53801 9.66654L3.38237 9.68931C3.01157 9.7437 2.64036 9.79816 2.2658 9.82897C2.10126 9.84103 1.93262 9.82411 1.75846 9.80664L1.75844 9.80663C1.67896 9.79866 1.59833 9.79057 1.51641 9.78507ZM4.44416 13.9025C4.79271 13.1562 4.68379 12.6206 4.09561 12.1553C3.48564 12.6206 2.77983 12.7918 2.02173 12.8182C1.96944 12.8182 1.88231 12.8928 1.86923 12.9499C1.7516 13.5074 1.91716 14.0035 2.2265 14.46C2.25126 14.4961 2.29863 14.5146 2.35212 14.5355C2.38332 14.5477 2.4166 14.5608 2.4487 14.5786C2.43361 14.5887 2.41889 14.5988 2.40431 14.6089C2.36839 14.6336 2.3334 14.6577 2.29621 14.6795C1.50325 15.158 0.862787 15.7858 0.483738 16.6419C-0.012949 17.7701 -0.19158 18.9335 0.257181 20.132C0.337952 20.3474 0.412245 20.5668 0.486418 20.7857C0.548281 20.9684 0.61006 21.1508 0.675442 21.3305C0.893288 21.9363 0.910715 22.5597 0.736441 23.1655C0.222326 24.9347 0.705942 26.559 1.38997 28.1614C1.45 28.2953 1.54801 28.4165 1.64247 28.5333L1.64703 28.5389C1.77774 28.7014 1.94766 28.754 2.15243 28.6838C2.35721 28.6092 2.50534 28.4731 2.49663 28.258C2.48791 27.9814 2.45306 27.7048 2.3877 27.437C2.3376 27.2241 2.2766 27.0134 2.21561 26.8027C2.15461 26.5919 2.09361 26.3812 2.04351 26.1683C1.90409 25.5669 2.08272 25.0708 2.57069 24.6976C2.59158 24.6822 2.61202 24.6663 2.6323 24.6506L2.63233 24.6505L2.63235 24.6505L2.63238 24.6505L2.6324 24.6505L2.63252 24.6504C2.67563 24.6169 2.71801 24.584 2.7624 24.5572C3.49871 24.1313 3.95183 23.464 4.32652 22.7221C4.43116 22.5112 4.56657 22.3148 4.70178 22.1187C4.76362 22.029 4.82541 21.9394 4.88421 21.8485L4.93649 21.8748C4.96263 21.9978 4.98932 22.1207 5.016 22.2436L5.01601 22.2436L5.01602 22.2437L5.01602 22.2437L5.01603 22.2437L5.01603 22.2437L5.01604 22.2438L5.01604 22.2438L5.01605 22.2438L5.01606 22.2439L5.01606 22.2439L5.01607 22.2439L5.01607 22.2439L5.01608 22.244L5.01608 22.244L5.01609 22.244L5.0161 22.2441L5.0161 22.2441C5.09613 22.6127 5.17615 22.9813 5.24147 23.3499C5.53338 24.9523 6.47447 26.1595 7.5637 27.2834C7.67114 27.396 7.81249 27.4787 7.94594 27.5567L7.95146 27.5599C8.13445 27.6697 8.3218 27.6697 8.49608 27.5248C8.67471 27.3756 8.74006 27.1868 8.66164 26.9761C8.58321 26.7741 8.48301 26.5766 8.36101 26.3966C8.23451 26.2125 8.09792 26.036 7.96142 25.8596L7.96139 25.8595C7.84404 25.7079 7.72675 25.5563 7.61598 25.4C7.09751 24.6713 7.07573 24.1577 7.58548 23.4289C7.99067 22.845 8.26952 22.2085 8.51786 21.5192C8.58718 21.5517 8.6553 21.5818 8.72201 21.6113L8.72209 21.6113C8.83566 21.6614 8.94512 21.7098 9.0494 21.7651C10.1212 22.3533 10.7791 23.2796 11.1712 24.4167C11.3305 24.8702 11.4677 25.332 11.6048 25.7933L11.6048 25.7933C11.6403 25.9125 11.6757 26.0317 11.7115 26.1507C11.8378 26.5722 12.0426 26.9453 12.3214 27.279L12.6402 27.6583C13.1386 28.2516 13.6362 28.8438 14.1426 29.4301C14.2864 29.5969 14.4607 29.755 14.648 29.8735C14.9879 30.0886 15.319 30.0228 15.6327 29.7199C15.8592 29.5004 15.8984 29.2282 15.6937 28.8814C15.5762 28.6816 15.4247 28.5006 15.2757 28.3225L15.2757 28.3225L15.2757 28.3224L15.2756 28.3224C15.2478 28.2892 15.2201 28.256 15.1926 28.2228C15.1055 28.1175 15.0053 28.0165 14.9007 27.9287C14.0163 27.1692 13.7984 26.1639 13.8376 25.062C13.844 24.877 13.8664 24.692 13.8882 24.512C13.8964 24.4443 13.9046 24.3773 13.9117 24.3113C14.0482 24.285 14.1832 24.2588 14.3151 24.233L14.3155 24.233L14.3161 24.2328C14.5586 24.1856 14.7911 24.1404 15.0053 24.1006C15.0865 24.281 15.1625 24.4653 15.2387 24.6499C15.4035 25.0495 15.569 25.4508 15.7895 25.8171C16.1139 26.3571 16.4982 26.8597 16.8824 27.3622L16.8826 27.3625L16.8827 27.3626L16.8827 27.3626C16.9731 27.4809 17.0636 27.5992 17.1532 27.718C17.3057 27.9199 17.5105 28.0824 17.7893 28.0165C17.9375 27.9814 18.0508 27.5775 17.9767 27.2922C17.907 27.0244 17.8242 26.7522 17.6891 26.5151C17.0879 25.4483 16.857 24.2762 16.6958 23.0865C16.613 22.4807 16.2557 22.2085 15.6545 22.327C14.5304 22.5509 13.4019 22.6606 12.2561 22.5597C12.1777 22.5509 12.0993 22.5333 12.0209 22.5158L12.0208 22.5158C11.2104 22.3226 10.888 21.5675 11.3063 20.8344C11.3193 20.808 11.3324 20.7817 11.3542 20.7598C11.7437 20.364 11.9548 19.8724 12.1668 19.3788L12.1669 19.3788L12.1669 19.3787C12.2418 19.2043 12.3168 19.0296 12.3999 18.8589C12.5654 18.5252 12.8791 18.2443 13.1797 17.9984C13.5501 17.6999 14.0032 17.5506 14.4694 17.4497C14.5347 17.4365 14.6306 17.375 14.6437 17.3223C14.6567 17.2609 14.6044 17.1467 14.5522 17.1204C14.5189 17.1046 14.4854 17.0883 14.4518 17.072C14.252 16.9748 14.0458 16.8745 13.8333 16.8482C13.4847 16.8043 13.1231 16.8131 12.7702 16.8482C12.3781 16.8877 12.0295 16.7648 11.7028 16.6068C11.3542 16.4399 11.0231 16.2117 10.7094 15.9834C9.85107 15.3556 8.98405 14.7454 7.99939 14.3283C6.94502 13.8762 5.85144 13.7269 4.71864 13.8937C4.63586 13.8849 4.54437 13.8893 4.44416 13.9025ZM9.22327 13.0574C8.87472 13.2769 8.49567 13.3735 8.08612 13.3735C7.694 13.3603 7.31931 13.2813 7.00125 13.0354C6.64834 12.7676 6.51328 12.3725 6.71806 11.9906C6.84876 11.7502 7.03093 11.5395 7.21311 11.3288C7.27383 11.2586 7.33456 11.1883 7.39338 11.117C7.42387 11.0819 7.49794 11.0687 7.55022 11.0731C8.49567 11.1653 9.22763 11.8194 9.39755 12.6447C9.44112 12.8467 9.38448 12.9564 9.22327 13.0574ZM4.49189 1.76562C4.98857 2.14317 5.68568 3.00362 6.16058 3.81578L6.11158 3.87825L6.11158 3.87826C5.9992 4.02147 5.89306 4.15672 5.79025 4.29869C5.69875 4.426 5.58983 4.45673 5.43298 4.40844C4.62695 4.14942 4.07363 3.56994 3.4898 2.94655C3.82964 2.54705 4.16076 2.15634 4.49189 1.76562ZM11.2887 4.46139C11.6477 4.1498 12.085 4.09533 12.5249 4.04055C12.6242 4.02818 12.7237 4.0158 12.8224 4.00044C13.0489 3.96532 13.2755 3.89947 13.4933 3.82923C13.5413 3.81167 13.611 3.72386 13.6023 3.67996C13.5369 3.24535 13.4018 2.83707 13.0402 2.55611C12.9792 2.50782 12.879 2.47709 12.8093 2.48587C12.2778 2.56928 11.7854 2.75366 11.3454 3.06536C11.2931 3.10487 11.2408 3.14438 11.1929 3.18828C10.7398 3.60972 10.7703 4.08824 11.2887 4.46139ZM11.4588 11.6643C11.0188 10.8741 9.10173 10.119 8.60504 10.5448C8.60504 10.558 8.60504 10.58 8.61375 10.5843C9.20629 11.1024 9.63327 11.7565 10.0472 12.4194C10.1474 12.5818 10.2476 12.5906 10.4044 12.5379C10.7704 12.415 11.1887 12.0726 11.4588 11.6643ZM14.3863 20.1847C14.3209 20.5227 14.1858 20.6237 13.8373 20.6325C13.776 20.621 13.7148 20.6119 13.6539 20.6028C13.5284 20.584 13.4042 20.5655 13.284 20.5271C12.8918 20.4086 12.7219 20.132 12.796 19.7237C12.8221 19.5745 12.8788 19.4296 12.9441 19.2935C13.1794 18.815 13.5672 18.4769 14.0116 18.2048C14.1641 18.1126 14.347 18.0555 14.5213 18.0248C14.6019 18.0092 14.6912 18.0313 14.78 18.0533L14.78 18.0533L14.7801 18.0533L14.7802 18.0533L14.7802 18.0533L14.7803 18.0533C14.8163 18.0622 14.8521 18.0711 14.8873 18.0775C14.8799 18.1097 14.8743 18.1436 14.8686 18.1778C14.8542 18.2646 14.8396 18.3525 14.7958 18.4155C14.5431 18.7799 14.469 19.1881 14.4473 19.6184C14.4385 19.8071 14.4211 20.0003 14.3863 20.1847ZM13.5802 19.5437C13.3885 19.5437 13.2186 19.7149 13.223 19.9081C13.2239 19.9508 13.2324 19.9916 13.247 20.0293C13.2326 19.9919 13.2244 19.9515 13.2234 19.9093C13.2234 19.7161 13.389 19.5449 13.5807 19.5449C13.729 19.5449 13.8574 19.6379 13.9092 19.7706C13.8577 19.6373 13.729 19.5437 13.5802 19.5437ZM11.4194 5.6801L11.9256 5.7222L11.9256 5.72221L11.9257 5.72222C12.5893 5.77729 13.2395 5.83126 13.8898 5.89082C14.0815 5.90838 14.1425 5.83375 14.1599 5.65376C14.1947 5.26743 14.064 4.96452 13.7416 4.7538C13.197 4.40259 12.2254 4.46405 11.7287 4.8855C11.476 5.09622 11.3671 5.36402 11.4194 5.6801ZM11.0275 0.626953C11.5504 0.912307 12.047 1.20205 12.3956 1.69813C11.5939 2.17225 10.8184 2.63321 10.0429 3.09855C9.8991 2.87027 9.88167 2.71662 9.98623 2.39614C10.185 1.7789 10.5613 1.26442 10.9429 0.742846L11.0275 0.626953ZM9.84261 9.74661C10.3861 9.93279 10.8227 10.2692 11.2678 10.6122C11.5365 10.8191 11.8081 11.0284 12.1082 11.2085L12.2308 11.0144C12.3929 10.7584 12.551 10.5085 12.7007 10.2559C12.7225 10.2207 12.7095 10.1198 12.6746 10.0934C12.1082 9.64564 11.4982 9.28566 10.7532 9.25054C10.3829 9.24175 10.0517 9.33834 9.84261 9.74661ZM13.9861 6.83185C13.9773 7.19151 13.9684 7.55986 13.7377 7.86249C13.6472 7.83248 13.5576 7.80214 13.4687 7.77201C13.2323 7.69195 13.0004 7.61339 12.7661 7.54641C12.3522 7.43665 11.9383 7.33568 11.5201 7.24349C11.3632 7.20837 11.3284 7.12935 11.3502 6.98009C11.4068 6.56742 11.69 6.3128 12.1692 6.29524C12.7836 6.2689 13.35 6.47523 13.9033 6.72108C13.9425 6.73864 13.9861 6.79571 13.9861 6.83083L13.9861 6.83185ZM12.1935 20.5025L12.1934 20.5026L12.1932 20.5028L12.1931 20.5029L12.1928 20.5032C12.1071 20.607 12.0282 20.7025 11.9506 20.7992C11.9238 20.8325 11.896 20.8651 11.8682 20.8976C11.801 20.9764 11.7341 21.0546 11.6848 21.1416C11.5236 21.4226 11.602 21.7299 11.8983 21.8572C12.1336 21.9582 12.395 22.024 12.6477 22.0504C13.323 22.125 13.9896 22.0591 14.6431 21.8616C14.5996 21.5543 14.4601 21.4138 14.1552 21.3831C14.0029 21.3694 13.849 21.3642 13.6955 21.3591L13.6954 21.3591L13.6953 21.3591L13.6952 21.3591C13.6028 21.356 13.5105 21.3529 13.4188 21.3479C12.8263 21.3128 12.7304 21.2206 12.6128 20.6411C12.5924 20.544 12.5523 20.4488 12.5098 20.3477C12.4889 20.298 12.4673 20.2469 12.4472 20.1934C12.3542 20.3079 12.271 20.4086 12.1935 20.5025ZM12.9969 9.46C12.2998 9.09563 11.5896 8.77954 10.801 8.6215C10.9143 8.05957 11.2846 7.80934 11.8685 7.88397C12.4566 7.95421 12.9795 8.20006 13.4587 8.53809C13.5067 8.57321 13.5676 8.65223 13.5546 8.68735C13.4587 8.93319 13.3585 9.18343 13.2322 9.4161C13.206 9.46 13.0535 9.49073 12.9969 9.46ZM14.9095 19.2633C14.9095 19.7199 14.9836 19.7945 15.3321 19.7286C15.4759 19.7023 15.6284 19.6408 15.746 19.553C16.1992 19.215 16.3255 18.3985 16.0118 17.9463C15.9378 17.8409 15.8724 17.797 15.7504 17.8848C15.245 18.258 14.9313 18.7277 14.9095 19.2633Z" fill="#F58021"/>
</svg>
