<svg width="40" height="30" viewBox="0 0 40 30" fill="none" xmlns="http://www.w3.org/2000/svg">
<path fill-rule="evenodd" clip-rule="evenodd" d="M14.3241 18.6262C12.682 19.1229 11.0272 19.0465 9.35962 17.9383C9.23155 18.0994 9.10032 18.2616 8.96775 18.4254C8.63915 18.8315 8.30231 19.2477 7.98486 19.6834C7.74937 20.0209 7.52979 20.3712 7.31021 20.7215L7.3102 20.7215C7.09062 21.0718 6.87104 21.4221 6.63555 21.7597C6.11365 22.5112 5.92271 23.3264 5.97362 24.2308C6.03727 25.3899 5.57901 25.9758 4.4461 26.1796C2.11664 26.6 0.0290271 24.8677 0.0162977 22.5112C0.0162977 22.2811 0.012194 22.051 0.00810507 21.8217C0.00200847 21.4798 -0.00405544 21.1398 0.00356373 20.8043C0.0249669 19.9048 0.415242 19.1223 0.803768 18.3433C0.877385 18.1957 0.95094 18.0482 1.02191 17.9001C1.20557 17.519 1.39094 17.1385 1.57633 16.758C2.26472 15.3451 2.95334 13.9316 3.55505 12.4866C4.43953 10.3687 5.76822 8.54721 7.10162 6.71924C7.38019 6.33735 7.65897 5.95517 7.93394 5.56995C7.94713 5.55346 7.96116 5.53697 7.97539 5.52026L7.97547 5.52016L7.97549 5.52014L7.9755 5.52013L7.97551 5.52012L7.97551 5.52011C8.0162 5.47232 8.05842 5.42273 8.08669 5.36615C9.57602 2.653 12.2237 2.01611 14.9478 1.48113C15.6196 1.3514 16.2859 1.18891 16.9518 1.02653C17.7244 0.838134 18.4964 0.649873 19.2758 0.513051C20.7015 0.258296 22.1653 0.0544917 23.6165 0.00354061C25.3349 -0.0601482 26.7861 0.742331 28.0717 1.85052C26.1242 0.856971 24.0366 0.513054 21.8726 0.564005C21.3252 0.576743 20.7778 0.627694 20.2305 0.691383C19.4413 0.780547 19.1103 1.36648 18.8939 2.04158C18.3338 3.76118 18.4484 5.45531 19.0467 7.16217C19.1908 7.57225 19.2807 8.00496 19.3703 8.43603L19.3703 8.43604L19.3703 8.43606L19.3703 8.43608L19.3703 8.4361C19.431 8.72805 19.4915 9.01923 19.5686 9.30211C19.6669 9.6546 19.7628 10.0083 19.8588 10.3621L19.8589 10.3624C20.2104 11.6579 20.5625 12.9556 21.0324 14.2061C21.2234 14.7284 21.8598 15.2379 22.4072 15.4417C24.5584 16.2187 26.7606 16.6391 29.0392 15.8621C31.9033 14.8813 33.3799 11.8242 32.2979 8.98367C31.9512 8.08382 31.5399 7.21166 31.1269 6.33576L31.1269 6.33573L31.1269 6.33569C31.0547 6.18252 30.9824 6.02923 30.9104 5.87566C30.8445 5.73428 30.7088 5.6208 30.5757 5.50941L30.5757 5.5094C30.5289 5.47026 30.4824 5.43137 30.4394 5.39162C30.2748 5.23533 30.1031 5.08324 29.931 4.9307C29.5841 4.62328 29.2351 4.31405 28.9373 3.96499C28.5173 3.46822 28.53 2.84407 28.8992 2.30908C29.2556 1.78683 29.8284 1.65946 30.4267 1.76136C31.3559 1.91421 31.9542 2.48741 32.2597 3.34084C32.5525 4.16879 32.2724 4.88211 31.5469 5.50626C32.5016 6.296 32.8198 7.42966 33.0998 8.55059C33.2059 8.975 33.2628 9.41305 33.3199 9.85211V9.85215C33.3862 10.3619 33.4527 10.8729 33.5963 11.3656C33.8361 12.1815 34.1238 12.9863 34.4119 13.7919C34.659 14.4831 34.9063 15.1749 35.1238 15.8748C35.4062 16.7709 35.6663 17.6744 35.9262 18.5774L35.9263 18.5777C36.1466 19.3432 36.3668 20.1083 36.6004 20.868C36.7306 21.2914 36.8972 21.7044 37.0636 22.1169L37.0637 22.117L37.0637 22.1171L37.0637 22.1172L37.0638 22.1174C37.1577 22.3501 37.2515 22.5827 37.3387 22.8169C37.6177 23.5577 38.2494 23.8913 38.8755 24.2219C38.9922 24.2836 39.1087 24.3451 39.2226 24.4091C39.8082 24.7403 40.1137 25.1734 39.9609 25.8612C39.8209 26.5108 39.4009 26.9184 38.6244 26.893C37.0332 26.8293 35.4548 26.6764 33.8763 26.5108C33.609 26.4854 33.329 26.2051 33.138 25.9758C32.0688 24.6893 31.0122 23.3901 29.9684 22.0908C29.2428 21.1864 28.7082 20.1929 28.4282 19.0592C28.3091 18.5928 28.0665 18.1495 27.8266 17.7113C27.7586 17.5872 27.6909 17.4634 27.6262 17.3396C27.5626 17.2123 27.3844 17.0976 27.2443 17.0721L27.1438 17.0522C26.3374 16.8918 25.5351 16.7322 24.8385 17.4415C24.6612 17.6317 24.3704 17.7335 24.1167 17.8224L24.1129 17.8237C23.6674 17.9765 23.4637 18.2568 23.6292 18.6898C24.2164 20.2653 24.1721 21.8749 24.1276 23.4883V23.4883C24.1056 24.2881 24.0835 25.0888 24.1384 25.8867C24.161 26.1924 24.2038 26.4981 24.2465 26.8038C24.2999 27.1859 24.3534 27.5681 24.3675 27.9502C24.3802 28.2432 24.2529 28.6635 24.0493 28.8164C22.3563 30.0901 20.4596 30.3067 18.512 29.6061C17.5446 29.2495 16.8954 28.5489 16.7426 27.3515C16.4499 24.8677 16.0553 22.3965 15.5461 19.9509C15.3627 19.0335 14.9214 18.1574 14.4916 17.3039L14.4915 17.3039L14.4915 17.3038L14.4915 17.3038C14.4439 17.2093 14.3965 17.1151 14.3495 17.0212C13.1275 14.5883 12.7838 12.0662 13.2166 9.3658C13.573 7.12395 14.0568 4.98401 15.5461 3.21346C15.8533 2.85183 16.2182 2.54154 16.5816 2.23248C16.7302 2.10609 16.8786 1.97991 17.0227 1.85052C17.0445 1.83184 17.0678 1.81392 17.0913 1.79583C17.164 1.73991 17.2388 1.68238 17.2773 1.59576C15.317 1.62124 13.5476 2.16896 11.8037 2.98418C10.17 3.73388 9.2338 5.07088 8.28588 6.42465L8.28586 6.42466C8.07418 6.72698 7.86192 7.03013 7.64116 7.32776C7.55206 7.45513 7.55206 7.67168 7.56479 7.85001C7.75171 9.63317 8.43879 11.2576 9.12446 12.8788L9.16868 12.9833C9.30507 13.2927 9.37651 13.6345 9.44795 13.9764C9.47653 14.1131 9.50511 14.2498 9.53784 14.3845C9.61421 14.7284 9.69059 15.0851 9.71605 15.4417C9.72122 15.5141 9.72685 15.587 9.73251 15.6602L9.73252 15.6603L9.73253 15.6604L9.73254 15.6605C9.76869 16.1279 9.80581 16.6079 9.72878 17.0594C9.57603 17.8619 9.63967 18.1039 10.4671 18.2313C10.7297 18.2576 10.9944 18.2838 11.2603 18.3102L11.2667 18.3109L11.2706 18.3113L11.2736 18.3115C12.2925 18.4127 13.3281 18.5154 14.3241 18.6262ZM20.4599 6.66702C19.7216 6.36132 19.4161 5.63526 19.3142 4.78183C19.1997 3.85197 20.0398 2.69284 21.02 2.34892C21.7965 2.08142 22.8912 2.51451 23.324 3.27877C23.5786 3.73733 23.6804 4.10673 23.1203 4.5016C22.4866 4.9455 21.8979 5.44739 21.2628 5.98893C21.0049 6.20883 20.7393 6.43527 20.4599 6.66702ZM22.8781 10.5761C22.6489 11.5824 23.2981 12.3849 24.0874 12.3212C24.1587 12.0935 24.227 11.8705 24.2943 11.6506L24.2945 11.6499L24.2945 11.6498L24.2946 11.6497C24.4193 11.2424 24.5407 10.8456 24.6729 10.4487C24.7079 10.3495 24.7563 10.2529 24.8046 10.1566C24.8616 10.0427 24.9185 9.92914 24.9529 9.81184C25.0548 9.44245 25.1693 8.95842 24.6984 8.84378C24.3547 8.76735 23.8073 8.88199 23.5909 9.12401C23.2472 9.50614 22.9926 10.0539 22.8781 10.5761ZM27.4219 9.14958C27.4788 9.07374 27.5311 8.99113 27.5826 8.90981C27.7041 8.71796 27.8211 8.5333 27.982 8.46173C28.1475 8.38531 28.5039 8.53816 28.6821 8.69101L28.8004 8.79258L28.8004 8.79259C29.2222 9.15431 29.6525 9.52333 29.9551 9.97753C30.1205 10.245 30.0569 10.7418 29.9423 11.073C29.8532 11.315 29.5223 11.5697 29.2677 11.6207C29.1022 11.6462 28.8349 11.3405 28.6694 11.1367C28.3893 10.7927 28.1475 10.4361 27.9056 10.054C27.7824 9.8866 27.6896 9.69487 27.5809 9.47036L27.5809 9.47032C27.5324 9.37018 27.4808 9.26351 27.4219 9.14958ZM28.0896 13.7266L28.097 13.7221C28.0934 13.7003 28.0887 13.6775 28.0839 13.654C28.0718 13.5949 28.0588 13.5311 28.0588 13.4673C27.9909 13.4503 27.923 13.4277 27.8551 13.405C27.7193 13.3597 27.5836 13.3145 27.4478 13.3145C26.9259 13.3145 26.404 13.3272 25.8948 13.3909C25.6911 13.4164 25.4493 13.5565 25.3602 13.7093C25.3092 13.7985 25.4747 14.0787 25.6148 14.2061C25.6891 14.2805 25.7982 14.3071 25.9091 14.3341C25.988 14.3534 26.0678 14.3728 26.1367 14.4099C26.2767 14.4863 26.5313 14.6392 26.5185 14.7029C26.4676 14.8812 26.3403 15.0595 26.1876 15.1869C26.1136 15.2527 26.0078 15.276 25.8771 15.3048C25.8053 15.3207 25.7259 15.3381 25.6402 15.3652C26.1343 15.3328 26.5923 15.3004 27.0503 15.268C27.3121 15.2494 27.5739 15.2309 27.8424 15.2124C27.6921 15.1455 27.5199 15.1253 27.3541 15.1058C27.0143 15.0658 26.7013 15.029 26.6586 14.601C27.1777 14.2842 27.6338 14.0053 28.0896 13.7266Z" fill="white"/>
</svg>
